<svg width="24" height="24" viewBox="0 0 24 24" fill="none" xmlns="http://www.w3.org/2000/svg">
<path d="M21.6013 5.35004C21.6011 4.9466 21.4445 4.55895 21.1644 4.26857C20.8843 3.9782 20.5026 3.8077 20.0994 3.79292V3.79004H4.04485V3.79436C4.01701 3.79292 3.98941 3.79004 3.96133 3.79004C3.6387 3.79025 3.32408 3.89048 3.06079 4.07693C2.79749 4.26339 2.59849 4.52688 2.49117 4.83114C2.38386 5.13539 2.37352 5.46544 2.46157 5.77581C2.54963 6.08619 2.73175 6.36163 2.98285 6.5642L10.2164 13.7976L10.2162 18.2613V18.2983H10.2198C10.2259 18.4359 10.2668 18.5698 10.3387 18.6873C10.4106 18.8049 10.5111 18.9022 10.6309 18.9703L10.6288 18.9741L12.518 20.0649C12.5339 20.076 12.5514 20.0839 12.568 20.0937L12.5747 20.0976V20.0973C12.6952 20.1669 12.8334 20.2099 12.9827 20.2099C13.0904 20.2099 13.197 20.1887 13.2965 20.1475C13.3959 20.1063 13.4863 20.046 13.5625 19.9698C13.6386 19.8937 13.699 19.8033 13.7402 19.7038C13.7814 19.6043 13.8026 19.4977 13.8025 19.39C13.8025 19.3684 13.7977 19.348 13.7963 19.3269H13.8025V13.8043L21.1026 6.50444L21.0954 6.49724C21.2548 6.35168 21.3822 6.17448 21.4693 5.97695C21.5564 5.77943 21.6013 5.56592 21.6013 5.35004ZM7.74109 6.91004H7.74445L7.74469 6.91364L7.74109 6.91004Z" fill="currentColor"/>
</svg>
