<svg width="24" height="24" viewBox="0 0 24 24" fill="none" xmlns="http://www.w3.org/2000/svg">
<path fill-rule="evenodd" clip-rule="evenodd" d="M16.4759 15.5131L18.7881 17.8247C19.4305 18.4669 18.4672 19.4305 17.8248 18.7882L15.5124 16.4765C12.7347 18.7675 8.6368 18.5924 6.06188 16.0175C3.31271 13.2683 3.31271 8.81104 6.06188 6.06188C8.81104 3.31271 13.2683 3.31271 16.0175 6.06188C18.5927 8.63704 18.7675 12.7354 16.4759 15.5131ZM15.0541 7.02533C12.837 4.80826 9.24247 4.80826 7.0254 7.02533C4.80832 9.2424 4.80832 12.837 7.0254 15.0541C9.24247 17.2711 12.837 17.2711 15.0541 15.0541C17.2712 12.837 17.2712 9.2424 15.0541 7.02533Z" fill="currentColor"/>
</svg>
